<?xml version="1.0" standalone="no"?>
<!DOCTYPE svg PUBLIC "-//W3C//DTD SVG 20010904//EN"
 "http://www.w3.org/TR/2001/REC-SVG-20010904/DTD/svg10.dtd">
<svg version="1.0" xmlns="http://www.w3.org/2000/svg"
 width="500.000000pt" height="500.000000pt" viewBox="0 0 500.000000 500.000000"
 preserveAspectRatio="xMidYMid meet">
<metadata>
Created by potrace 1.14, written by Peter Selinger 2001-2017
</metadata>
<g transform="translate(0.000000,500.000000) scale(0.100000,-0.100000)"
fill="#000000" stroke="none">
<path d="M0 3799 l0 -1201 40 51 c142 180 418 285 661 252 50 -6 118 -23 151
-36 138 -56 258 -176 314 -315 14 -36 116 -353 226 -705 184 -592 200 -647
205 -735 14 -241 -112 -447 -349 -570 -108 -57 -207 -80 -337 -80 -170 0 -282
37 -399 130 -56 45 -131 143 -159 206 -9 22 -92 280 -184 574 l-168 535 0
-952 -1 -953 2500 0 2500 0 0 865 0 865 -34 0 c-18 0 -39 7 -46 15 -7 8 -133
403 -281 877 -198 637 -275 872 -296 902 -32 47 -101 86 -150 86 -38 0 -98
-23 -127 -48 -29 -26 -56 -92 -56 -138 0 -27 97 -355 270 -909 149 -477 270
-878 270 -891 0 -12 -4 -25 -9 -28 -4 -3 -89 -30 -187 -61 -98 -31 -185 -58
-191 -60 -7 -2 -24 6 -37 18 -21 18 -72 173 -290 874 -146 469 -272 865 -280
881 -20 39 -66 83 -103 98 -85 36 -200 -13 -232 -99 -26 -68 -16 -106 259
-990 148 -477 270 -874 270 -881 0 -25 -30 -38 -217 -97 -166 -52 -190 -57
-208 -45 -17 11 -79 202 -300 912 -247 796 -279 907 -283 978 -14 283 203 562
494 636 97 25 251 26 344 2 l65 -17 75 76 c82 83 179 145 280 180 91 31 260
38 365 14 173 -38 333 -156 407 -300 20 -39 77 -200 128 -365 51 -162 94 -297
96 -299 2 -2 4 435 4 972 l0 977 -2500 0 -2500 0 0 -1201z m2126 -460 c96 -17
199 -74 279 -154 89 -89 128 -157 182 -314 46 -135 50 -162 30 -183 -8 -7 -93
-37 -190 -67 -142 -43 -179 -51 -191 -42 -8 7 -29 56 -47 109 -42 128 -70 176
-123 207 -116 68 -254 -6 -264 -144 -4 -51 14 -114 182 -656 102 -330 193
-619 202 -642 18 -50 79 -108 127 -121 48 -13 122 2 165 34 41 32 71 94 72
149 0 39 -93 361 -110 378 -4 5 -39 -1 -77 -12 -39 -12 -73 -21 -76 -21 -15 0
-39 55 -77 176 -40 131 -48 178 -31 188 15 9 519 166 534 166 8 0 21 -8 31
-19 25 -28 234 -707 245 -799 26 -202 -53 -393 -211 -518 -69 -54 -198 -115
-290 -138 -87 -21 -260 -21 -341 0 -162 42 -299 155 -370 307 -24 50 -415
1295 -436 1387 -26 115 -7 260 50 378 116 238 457 401 735 351z"/>
<path d="M478 2460 c-65 -35 -106 -118 -94 -194 11 -63 374 -1225 399 -1276
33 -65 91 -103 159 -103 106 -2 188 77 188 179 0 45 -84 325 -351 1177 -44
139 -81 196 -146 224 -45 18 -112 16 -155 -7z"/>
</g>
</svg>
